<svg width="218" height="217" viewBox="0 0 218 217">
  <g fill="#E50F0F" fill-rule="evenodd" transform="translate(.546 .023)">
    <polygon points="19.576 137.885 91.598 177.207 57.873 78.004"/>
    <path d="M108.299912 216.824925C122.146962 216.824925 135.367738 214.19655 147.53322 209.457585L9.71858361 153.20148C26.7117935 190.713769 64.4459902 216.824925 108.299912 216.824925L108.299912 216.824925zM46.1016081 44.1313069C43.3598134 35.2155427 49.3020124 34.5251627 49.3020124 34.5251627 58.0550442 32.3406032 58.9081566 40.472293 58.9081566 40.472293L63.129337 57.4309839 105.395385.489430087C46.9843082 2.03292245.0927142889 49.8318729.0927142889 108.617727.0927142889 118.509886 1.44388652 128.081511 3.9341857 137.179733L54.6820449 68.8173221 46.1016081 44.1313069 46.1016081 44.1313069zM216.502179 108.617727C216.502179 48.8604097 168.05723.415460804 108.299912.415460804 108.028692.415460804 107.757471.435185946 107.481319.435185946L65.3484155 66.3171604 94.5613508 178.952653 149.416971 208.703098C188.778492 192.52355 216.502179 153.812959 216.502179 108.617727L216.502179 108.617727z"/>
  </g>
</svg>
